<svg width="24" height="24" viewBox="0 0 24 24" fill="none" xmlns="http://www.w3.org/2000/svg">
<path d="M1.2002 0.5C1.29271 0.50013 1.44058 0.552161 1.59375 0.761719C1.72862 0.9463 1.83425 1.21438 1.87793 1.53027L1.89258 1.66895L1.90039 1.86621V13.4238H10.0996V3.69238C10.0997 3.314 10.1912 2.96632 10.3359 2.71582C10.4793 2.46778 10.6372 2.37523 10.7422 2.35352L10.8154 2.34668H20.4004C21.1082 2.34675 21.854 2.76258 22.458 3.63867C23.0623 4.51541 23.4431 5.74456 23.4941 7.0791L23.5 7.39453V22.1553C23.4997 22.5497 23.4 22.9082 23.2461 23.1592C23.0908 23.4123 22.9267 23.4899 22.8252 23.499C22.7325 23.5073 22.5843 23.4681 22.4248 23.2627C22.2646 23.0564 22.1396 22.7332 22.1074 22.3477L22.0996 22.1367V16.1172H1.90039V22.1553C1.90011 22.5496 1.80033 22.9083 1.64648 23.1592C1.49129 23.4121 1.32713 23.4898 1.22559 23.499C1.13288 23.5074 0.984758 23.4681 0.825195 23.2627C0.663008 23.0538 0.53713 22.7249 0.506836 22.333L0.5 22.1367V1.84668C0.5 1.43561 0.607404 1.06456 0.770508 0.813477C0.893321 0.624517 1.0179 0.542715 1.11426 0.513672L1.2002 0.5Z" fill="#06545B" stroke="#06545B"/>
<path d="M5.99951 4.19275C6.30862 4.1929 6.64374 4.33058 6.95947 4.6488C7.27796 4.96983 7.54934 5.44946 7.71826 6.04529C7.8866 6.6392 7.94012 7.30277 7.86865 7.94958C7.79706 8.59723 7.6053 9.1835 7.33057 9.63904C7.05492 10.0961 6.72266 10.3788 6.39893 10.5023C6.08634 10.6216 5.76132 10.6018 5.44385 10.431C5.11595 10.2546 4.7943 9.91326 4.54346 9.41052C4.32496 8.97259 4.17825 8.44634 4.12354 7.8822L4.10596 7.63806L4.1001 7.39587L4.10596 7.13318C4.14769 6.27939 4.39726 5.50698 4.77686 4.96521C5.15607 4.42417 5.60193 4.19269 5.99951 4.19275Z" fill="#06545B" stroke="#06545B"/>
</svg>
