<svg width="21" height="22" viewBox="0 0 21 22" fill="none" xmlns="http://www.w3.org/2000/svg">
<path d="M15.5 2.75C14.7044 2.75 13.9413 3.06607 13.3787 3.62868C12.8161 4.19129 12.5 4.95435 12.5 5.75C12.5 6.54565 12.8161 7.30871 13.3787 7.87132C13.9413 8.43393 14.7044 8.75 15.5 8.75C16.2956 8.75 17.0587 8.43393 17.6213 7.87132C18.1839 7.30871 18.5 6.54565 18.5 5.75C18.5 4.95435 18.1839 4.19129 17.6213 3.62868C17.0587 3.06607 16.2956 2.75 15.5 2.75ZM10.5 5.75C10.5 4.42392 11.0268 3.15215 11.9645 2.21447C12.9021 1.27678 14.1739 0.75 15.5 0.75C16.8261 0.75 18.0979 1.27678 19.0355 2.21447C19.9732 3.15215 20.5 4.42392 20.5 5.75C20.5 7.07608 19.9732 8.34785 19.0355 9.28553C18.0979 10.2232 16.8261 10.75 15.5 10.75C14.1739 10.75 12.9021 10.2232 11.9645 9.28553C11.0268 8.34785 10.5 7.07608 10.5 5.75ZM0 1.25H9V10.25H0V1.25ZM2 3.25V8.25H7V3.25H2ZM0 12.25H9V21.25H0V12.25ZM2 14.25V19.25H7V14.25H2ZM11 12.25H20V21.25H11V12.25ZM18 14.25H13V19.25H18V14.25Z" fill="black"/>
</svg>
