<svg width="16" height="12" viewBox="0 0 16 12" fill="none" xmlns="http://www.w3.org/2000/svg">
<path fill-rule="evenodd" clip-rule="evenodd" d="M15.6947 0.292787C15.8822 0.480314 15.9875 0.734622 15.9875 0.999786C15.9875 1.26495 15.8822 1.51926 15.6947 1.70679L6.19471 11.2068C6.00718 11.3943 5.75288 11.4996 5.48771 11.4996C5.22255 11.4996 4.96824 11.3943 4.78071 11.2068L0.280712 6.70679C0.0985542 6.51818 -0.00224062 6.26558 3.78025e-05 6.00339C0.00231622 5.74119 0.107485 5.49038 0.292894 5.30497C0.478302 5.11956 0.729114 5.01439 0.991311 5.01211C1.25351 5.00983 1.50611 5.11063 1.69471 5.29279L5.48771 9.08579L14.2807 0.292787C14.4682 0.105316 14.7225 0 14.9877 0C15.2529 0 15.5072 0.105316 15.6947 0.292787Z" fill="#06545B"/>
</svg>
