<svg width="39" height="43" viewBox="0 0 39 43" fill="none" xmlns="http://www.w3.org/2000/svg">
<path fill-rule="evenodd" clip-rule="evenodd" d="M6.5 1.19444C6.5 0.877658 6.61414 0.573847 6.8173 0.349845C7.02047 0.125843 7.29602 0 7.58333 0H31.4167C31.704 0 31.9795 0.125843 32.1827 0.349845C32.3859 0.573847 32.5 0.877658 32.5 1.19444V2.38889H37.9167C38.204 2.38889 38.4795 2.51473 38.6827 2.73873C38.8859 2.96274 39 3.26655 39 3.58333V10.75C39 12.3339 38.4293 13.853 37.4135 14.973C36.3977 16.093 35.0199 16.7222 33.5833 16.7222H31.7601C30.9855 19.1314 29.6415 21.2688 27.8671 22.9138C26.0928 24.5588 23.9522 25.6516 21.6667 26.0795V33.4444H28.1667C28.454 33.4444 28.7295 33.5703 28.9327 33.7943C29.1359 34.0183 29.25 34.3221 29.25 34.6389V41.8056C29.25 42.1223 29.1359 42.4262 28.9327 42.6502C28.7295 42.8742 28.454 43 28.1667 43H10.8333C10.546 43 10.2705 42.8742 10.0673 42.6502C9.86414 42.4262 9.75 42.1223 9.75 41.8056V34.6389C9.75 34.3221 9.86414 34.0183 10.0673 33.7943C10.2705 33.5703 10.546 33.4444 10.8333 33.4444H17.3333V26.0795C15.0478 25.6516 12.9072 24.5588 11.1329 22.9138C9.35847 21.2688 8.01455 19.1314 7.23992 16.7222H5.41667C3.98008 16.7222 2.60233 16.093 1.5865 14.973C0.570683 13.853 0 12.3339 0 10.75V3.58333C0 3.26655 0.114137 2.96274 0.317301 2.73873C0.520466 2.51473 0.796016 2.38889 1.08333 2.38889H6.5V1.19444ZM32.5 11.9444V4.77778H36.8333V10.75C36.8333 11.7004 36.4909 12.6118 35.8814 13.2838C35.2719 13.9558 34.4453 14.3333 33.5833 14.3333H32.5V11.9444ZM6.5 4.77778H2.16667V10.75C2.16667 11.7004 2.50908 12.6118 3.11857 13.2838C3.72806 13.9558 4.55471 14.3333 5.41667 14.3333H6.5V4.77778Z" fill="#06545B"/>
</svg>
