<svg width="24" height="24" viewBox="0 0 24 24" fill="none" xmlns="http://www.w3.org/2000/svg">
<path d="M12 5.0957C12.6115 5.0957 13.1798 5.28275 13.582 5.59082C13.9812 5.89666 14.167 6.2792 14.167 6.63867V8.15918H19.333C20.0759 8.15918 20.6064 8.52181 20.7705 8.88574L20.7715 8.88672L23.5 14.915V22.9785C23.5 23.0699 23.4521 23.1897 23.3047 23.3027C23.157 23.4158 22.9324 23.4999 22.667 23.5H21.333C21.0676 23.4999 20.843 23.4158 20.6953 23.3027C20.5479 23.1897 20.5 23.0699 20.5 22.9785V21.457H3.5V22.9785C3.5 23.0699 3.4521 23.1897 3.30469 23.3027C3.15705 23.4158 2.93235 23.4999 2.66699 23.5H1.33301C1.06765 23.4999 0.842951 23.4158 0.695312 23.3027C0.547904 23.1897 0.5 23.0699 0.5 22.9785V14.915L3.22852 8.88672L3.22949 8.88574C3.39359 8.52181 3.92407 8.15918 4.66699 8.15918H9.83301V6.63867C9.83301 6.26639 10.0315 5.89103 10.4209 5.59277C10.8103 5.29457 11.3679 5.0957 12 5.0957ZM4.66699 15.3301C4.01388 15.3301 3.40392 15.5311 2.94727 15.8809C2.49009 16.2311 2.16712 16.7502 2.16699 17.3613C2.16699 17.9727 2.48994 18.4924 2.94727 18.8428C3.40392 19.1925 4.01388 19.3936 4.66699 19.3936C5.31992 19.3935 5.92918 19.1924 6.38574 18.8428C6.84311 18.4924 7.16699 17.9727 7.16699 17.3613C7.16686 16.7501 6.84302 16.2311 6.38574 15.8809C5.92917 15.5311 5.31998 15.3301 4.66699 15.3301ZM19.333 15.3301C18.68 15.3301 18.0708 15.5311 17.6143 15.8809C17.157 16.2311 16.8331 16.7501 16.833 17.3613C16.833 17.9727 17.1569 18.4924 17.6143 18.8428C18.0708 19.1924 18.6801 19.3935 19.333 19.3936C19.9861 19.3936 20.5961 19.1925 21.0527 18.8428C21.5101 18.4924 21.833 17.9727 21.833 17.3613C21.8329 16.7502 21.5099 16.2311 21.0527 15.8809C20.5961 15.5311 19.9861 15.3301 19.333 15.3301ZM4.20801 8.99219L2.20801 13.5879L1.90332 14.2871H22.0967L21.792 13.5879L19.792 8.99219L19.6611 8.69141H4.33887L4.20801 8.99219ZM12 2.84863C13.2631 2.84863 14.5188 3.19083 15.5439 3.80371L15.3193 3.97656C14.3339 3.34007 13.152 3.07422 12 3.07422C10.8477 3.07422 9.66526 3.33975 8.67969 3.97656L8.45508 3.80371C9.48038 3.19056 10.7366 2.84863 12 2.84863ZM12 0.5C14.0773 0.5 16.1399 1.06021 17.8213 2.16113L17.5801 2.3457C15.9482 1.293 13.9728 0.725586 12 0.725586C10.0269 0.725586 8.05096 1.29271 6.41895 2.3457L6.17773 2.16113C7.85925 1.05991 9.92245 0.5 12 0.5Z" fill="#06545B" stroke="#06545B"/>
</svg>
