<svg width="27" height="26" viewBox="0 0 27 26" fill="none" xmlns="http://www.w3.org/2000/svg">
<path d="M13.4991 18.9142C16.8126 18.9142 19.4987 16.2451 19.4987 12.9526C19.4987 9.66011 16.8126 6.99103 13.4991 6.99103C10.1856 6.99103 7.49951 9.66011 7.49951 12.9526C7.49951 16.2451 10.1856 18.9142 13.4991 18.9142Z" fill="white" stroke="white" stroke-width="2"/>
<path d="M13.499 11.2154C12.5312 11.2155 11.749 11.9948 11.749 12.9527C11.7491 13.9105 12.5312 14.6899 13.499 14.69C14.4669 14.69 15.249 13.9106 15.249 12.9527C15.249 11.9948 14.4669 11.2154 13.499 11.2154Z" fill="white" stroke="white" stroke-width="0.5"/>
<path d="M3.49976 6.32855C3.49976 6.32855 8.4994 -1.28906 17.1655 1.69174C25.8315 4.67255 25.4982 13.2837 25.4982 13.2837" stroke="white" stroke-width="2" stroke-linecap="round" stroke-linejoin="round"/>
<path d="M23.4984 19.5765C23.4984 19.5765 19.4987 26.8629 10.4994 24.5445C1.5 22.2261 1.5 12.9526 1.5 12.9526" stroke="white" stroke-width="2" stroke-linecap="round" stroke-linejoin="round"/>
<path d="M25.4983 2.35425V12.9526" stroke="white" stroke-width="2" stroke-linecap="round" stroke-linejoin="round"/>
<path d="M1.5 12.9526V23.5509" stroke="white" stroke-width="2" stroke-linecap="round" stroke-linejoin="round"/>
</svg>
