<svg width="201" height="30" viewBox="0 0 201 30" fill="none" xmlns="http://www.w3.org/2000/svg">
<path d="M22.9688 0H7.03125C3.148 0 0 3.148 0 7.03125V22.9688C0 26.852 3.148 30 7.03125 30H22.9688C26.852 30 30 26.852 30 22.9688V7.03125C30 3.148 26.852 0 22.9688 0Z" fill="url(#paint0_radial_1_353)"/>
<path d="M22.9688 0H7.03125C3.148 0 0 3.148 0 7.03125V22.9688C0 26.852 3.148 30 7.03125 30H22.9688C26.852 30 30 26.852 30 22.9688V7.03125C30 3.148 26.852 0 22.9688 0Z" fill="url(#paint1_radial_1_353)"/>
<path d="M15.0011 3.28125C11.8185 3.28125 11.419 3.2952 10.1691 3.35203C8.92148 3.40922 8.06988 3.60668 7.3248 3.89648C6.55395 4.19578 5.90016 4.59621 5.24883 5.24777C4.59691 5.89922 4.19648 6.55301 3.89625 7.32352C3.60563 8.06883 3.40793 8.92078 3.3518 10.1678C3.2959 11.4178 3.28125 11.8174 3.28125 15.0001C3.28125 18.1828 3.29531 18.581 3.35203 19.8309C3.40945 21.0785 3.60691 21.9301 3.89648 22.6752C4.19602 23.4461 4.59645 24.0998 5.24801 24.7512C5.89922 25.4031 6.55301 25.8045 7.32328 26.1037C8.06895 26.3936 8.92066 26.591 10.168 26.6482C11.418 26.705 11.8172 26.719 14.9996 26.719C18.1826 26.719 18.5808 26.705 19.8307 26.6482C21.0783 26.591 21.9308 26.3936 22.6765 26.1037C23.447 25.8045 24.0998 25.4031 24.7509 24.7512C25.4029 24.0998 25.8032 23.4461 26.1035 22.6755C26.3916 21.9301 26.5894 21.0783 26.648 19.8312C26.7041 18.5812 26.7188 18.1828 26.7188 15.0001C26.7188 11.8174 26.7041 11.418 26.648 10.168C26.5894 8.92043 26.3916 8.06895 26.1035 7.32387C25.8032 6.55301 25.4029 5.89922 24.7509 5.24777C24.0991 4.59598 23.4472 4.19555 22.6758 3.8966C21.9287 3.60668 21.0766 3.4091 19.8291 3.35203C18.579 3.2952 18.1811 3.28125 14.9974 3.28125H15.0011ZM13.9498 5.39309C14.2618 5.39262 14.61 5.39309 15.0011 5.39309C18.1301 5.39309 18.5009 5.40434 19.7365 5.46047C20.8791 5.51273 21.4992 5.70363 21.9123 5.86406C22.4592 6.07641 22.8491 6.33035 23.259 6.74062C23.6692 7.15078 23.923 7.54137 24.1359 8.08828C24.2964 8.50078 24.4875 9.12094 24.5395 10.2635C24.5957 11.4989 24.6079 11.8699 24.6079 14.9974C24.6079 18.1249 24.5957 18.4961 24.5395 19.7313C24.4873 20.8739 24.2964 21.4941 24.1359 21.9067C23.9236 22.4536 23.6692 22.843 23.259 23.2529C22.8489 23.6631 22.4595 23.9169 21.9123 24.1294C21.4997 24.2905 20.8791 24.4809 19.7365 24.5332C18.5011 24.5893 18.1301 24.6015 15.0011 24.6015C11.8719 24.6015 11.501 24.5893 10.2657 24.5332C9.12316 24.4805 8.50301 24.2896 8.08957 24.1291C7.54277 23.9167 7.15207 23.6629 6.74191 23.2527C6.33176 22.8425 6.07793 22.4529 5.865 21.9057C5.70457 21.4931 5.51344 20.873 5.46141 19.7304C5.40527 18.495 5.39402 18.124 5.39402 14.9945C5.39402 11.865 5.40527 11.496 5.46141 10.2606C5.51367 9.11801 5.70457 8.49785 5.865 8.08476C6.07746 7.53785 6.33176 7.14727 6.74203 6.73711C7.1523 6.32695 7.54277 6.07301 8.08969 5.8602C8.50277 5.69906 9.12316 5.50863 10.2657 5.45613C11.3468 5.40727 11.7657 5.39262 13.9498 5.39016V5.39309ZM21.2565 7.33887C20.4802 7.33887 19.8503 7.96816 19.8503 8.74465C19.8503 9.52102 20.4802 10.1509 21.2565 10.1509C22.0329 10.1509 22.6628 9.52102 22.6628 8.74465C22.6628 7.96828 22.0329 7.3384 21.2565 7.3384V7.33887ZM15.0011 8.98195C11.6776 8.98195 8.98301 11.6766 8.98301 15.0001C8.98301 18.3237 11.6776 21.017 15.0011 21.017C18.3246 21.017 21.0183 18.3237 21.0183 15.0001C21.0183 11.6767 18.3244 8.98195 15.0008 8.98195H15.0011ZM15.0011 11.0938C17.1584 11.0938 18.9074 12.8426 18.9074 15.0001C18.9074 17.1574 17.1584 18.9064 15.0011 18.9064C12.8438 18.9064 11.0948 17.1574 11.0948 15.0001C11.0948 12.8426 12.8436 11.0938 15.0011 11.0938Z" fill="white"/>
<path d="M69.7687 17.2577C69.7687 16.4889 70.1381 15.2664 73.0068 15.2664C73.8862 15.2664 74.4281 15.3302 75.1556 15.4933C74.9231 18.5045 73.4493 18.902 72.0168 18.902C71.2331 18.902 69.7687 18.4933 69.7687 17.2577Z" fill="black"/>
<path d="M61.8562 30H82.1437C83.4317 30 84.6669 29.4884 85.5776 28.5776C86.4884 27.6669 87 26.4317 87 25.1437V4.85625C87 3.56829 86.4884 2.33309 85.5776 1.42236C84.6669 0.511639 83.4317 0 82.1437 0L61.8562 0C60.5683 0 59.3331 0.511639 58.4224 1.42236C57.5116 2.33309 57 3.56829 57 4.85625V25.1437C57 26.4317 57.5116 27.6669 58.4224 28.5776C59.3331 29.4884 60.5683 30 61.8562 30ZM67.9988 11.0812C69.0619 9.5625 70.4644 8.97 72.405 8.97C73.7737 8.97 74.9381 9.43125 75.7706 10.3031C76.6012 11.1769 77.0756 12.4256 77.1844 14.0213C77.6444 14.2137 78.0681 14.4406 78.4556 14.7019C80.0156 15.75 80.8744 17.3175 80.8744 19.1138C80.8744 22.9331 77.7431 26.25 72.0769 26.25C67.2113 26.25 62.1562 23.4187 62.1562 14.9925C62.1562 6.61125 67.0519 3.75 72.0619 3.75C74.3756 3.75 79.8037 4.09125 81.8438 10.8319L79.9312 11.3269C78.3525 6.52688 75.0431 5.76188 72.0112 5.76188C66.9956 5.76188 64.1606 8.81438 64.1606 15.3113C64.1606 21.1369 67.3294 24.2306 72.0769 24.2306C75.9825 24.2306 78.8944 22.2019 78.8944 19.23C78.8944 17.2069 77.1956 16.2394 77.1075 16.2394C76.7756 17.9738 75.8869 20.8931 71.9831 20.8931C69.7087 20.8931 67.7456 19.3219 67.7456 17.2631C67.7456 14.3231 70.5356 13.2581 72.7388 13.2581C73.5637 13.2581 74.5575 13.3144 75.0769 13.4194C75.0769 12.5231 74.3194 10.9894 72.4031 10.9894C70.695 10.9894 70.2281 11.5294 69.6844 12.1594L69.6394 12.21C69.2606 11.9569 67.9988 11.0812 67.9988 11.0812Z" fill="black"/>
<path d="M144 15C144 6.71578 137.284 0 129 0C120.716 0 114 6.71578 114 15C114 22.4869 119.485 28.6925 126.656 29.8178V19.3359H122.848V15H126.656V11.6953C126.656 7.93594 128.896 5.85938 132.322 5.85938C133.963 5.85938 135.68 6.15234 135.68 6.15234V9.84375H133.788C131.925 9.84375 131.344 11 131.344 12.1863V15H135.504L134.839 19.3359H131.344V29.8178C138.515 28.6925 144 22.487 144 15Z" fill="#1877F2"/>
<path d="M134.839 19.3359L135.504 15H131.344V12.1863C131.344 10.9999 131.925 9.84375 133.788 9.84375H135.68V6.15234C135.68 6.15234 133.963 5.85938 132.322 5.85938C128.896 5.85938 126.656 7.93594 126.656 11.6953V15H122.848V19.3359H126.656V29.8178C127.432 29.9393 128.215 30.0002 129 30C129.785 30.0002 130.568 29.9393 131.344 29.8178V19.3359H134.839Z" fill="white"/>
<path d="M171.64 14.8695C171.64 17.3984 172.303 19.8677 173.565 22.0442L171.52 29.4807L179.164 27.4852C181.278 28.6311 183.647 29.2315 186.055 29.2317H186.061C194.008 29.2317 200.477 22.7938 200.48 14.8808C200.482 11.0464 198.983 7.44071 196.261 4.72802C193.538 2.01557 189.918 0.520976 186.06 0.519226C178.112 0.519226 171.644 6.95679 171.64 14.8695Z" fill="url(#paint2_linear_1_353)"/>
<path d="M171.125 14.865C171.125 17.4849 171.812 20.0425 173.119 22.297L171 30L178.918 27.933C181.1 29.1173 183.557 29.7417 186.056 29.7426H186.063C194.295 29.7426 200.996 23.0731 201 14.8769C201.001 10.9047 199.449 7.1694 196.629 4.35953C193.809 1.55001 190.059 0.00163331 186.063 0C177.829 0 171.129 6.66856 171.125 14.865ZM175.841 21.9087L175.545 21.4415C174.303 19.474 173.647 17.2005 173.647 14.8659C173.65 8.05325 179.219 2.51063 186.068 2.51063C189.384 2.51203 192.501 3.79907 194.845 6.13423C197.189 8.46963 198.479 11.5741 198.478 14.8759C198.475 21.6886 192.906 27.2319 186.063 27.2319H186.058C183.83 27.2307 181.645 26.635 179.739 25.5093L179.285 25.2416L174.586 26.4681L175.841 21.9087Z" fill="url(#paint3_linear_1_353)"/>
<path d="M182.33 8.65041C182.05 8.03173 181.756 8.01925 181.49 8.0084C181.272 7.99907 181.023 7.99977 180.774 7.99977C180.526 7.99977 180.121 8.09298 179.779 8.46456C179.437 8.83649 178.473 9.73527 178.473 11.5633C178.473 13.3913 179.81 15.1581 179.997 15.4062C180.183 15.6539 182.579 19.5253 186.372 21.0147C189.525 22.2524 190.167 22.0062 190.851 21.9441C191.535 21.8823 193.059 21.0456 193.37 20.1779C193.681 19.3104 193.681 18.5668 193.588 18.4114C193.495 18.2566 193.246 18.1636 192.873 17.9779C192.499 17.7921 190.664 16.8931 190.322 16.7691C189.98 16.6452 189.731 16.5834 189.482 16.9554C189.234 17.3269 188.519 18.1636 188.301 18.4114C188.083 18.6598 187.865 18.6907 187.492 18.5048C187.119 18.3184 185.917 17.9265 184.491 16.6608C183.381 15.676 182.632 14.4597 182.415 14.0877C182.197 13.7162 182.391 13.5149 182.578 13.3297C182.746 13.1632 182.952 12.8958 183.138 12.679C183.325 12.462 183.387 12.3071 183.511 12.0594C183.636 11.8113 183.573 11.5943 183.48 11.4085C183.387 11.2226 182.661 9.38505 182.33 8.65041Z" fill="white"/>
<defs>
<radialGradient id="paint0_radial_1_353" cx="0" cy="0" r="1" gradientUnits="userSpaceOnUse" gradientTransform="translate(7.96875 32.3106) rotate(-90) scale(29.7322 27.6533)">
<stop stop-color="#FFDD55"/>
<stop offset="0.1" stop-color="#FFDD55"/>
<stop offset="0.5" stop-color="#FF543E"/>
<stop offset="1" stop-color="#C837AB"/>
</radialGradient>
<radialGradient id="paint1_radial_1_353" cx="0" cy="0" r="1" gradientUnits="userSpaceOnUse" gradientTransform="translate(-5.02512 2.16105) rotate(78.681) scale(13.2905 54.7837)">
<stop stop-color="#3771C8"/>
<stop offset="0.128" stop-color="#3771C8"/>
<stop offset="1" stop-color="#6600FF" stop-opacity="0"/>
</radialGradient>
<linearGradient id="paint2_linear_1_353" x1="1619.56" y1="2896.66" x2="1619.56" y2="0.519226" gradientUnits="userSpaceOnUse">
<stop stop-color="#1FAF38"/>
<stop offset="1" stop-color="#60D669"/>
</linearGradient>
<linearGradient id="paint3_linear_1_353" x1="1671" y1="3000" x2="1671" y2="0" gradientUnits="userSpaceOnUse">
<stop stop-color="#F9F9F9"/>
<stop offset="1" stop-color="white"/>
</linearGradient>
</defs>
</svg>
