<svg width="143" height="143" viewBox="0 0 143 143" fill="none" xmlns="http://www.w3.org/2000/svg">
<circle cx="71.5" cy="71.5" r="71.5" fill="#06545B"/>
<path d="M72 32C61.3913 32 51.2172 36.2143 43.7157 43.7157C36.2143 51.2172 32 61.3913 32 72C32 82.6087 36.2143 92.7828 43.7157 100.284C51.2172 107.786 61.3913 112 72 112C82.6087 112 92.7828 107.786 100.284 100.284C107.786 92.7828 112 82.6087 112 72C112 61.3913 107.786 51.2172 100.284 43.7157C92.7828 36.2143 82.6087 32 72 32ZM22 72C22 44.385 44.385 22 72 22C99.615 22 122 44.385 122 72C122 99.615 99.615 122 72 122C44.385 122 22 99.615 22 72ZM95.32 55.765C96.3099 56.6459 96.9097 57.8838 96.9875 59.2066C97.0653 60.5295 96.6148 61.8291 95.735 62.82L69.07 92.82C68.6009 93.3479 68.0253 93.7704 67.3811 94.0598C66.7369 94.3491 66.0387 94.4987 65.3325 94.4987C64.6263 94.4987 63.9281 94.3491 63.2839 94.0598C62.6397 93.7704 62.0641 93.3479 61.595 92.82L48.265 77.82C47.4356 76.8223 47.0265 75.5413 47.1241 74.2475C47.2217 72.9537 47.8184 71.7486 48.7881 70.8866C49.7578 70.0246 51.0246 69.5734 52.3209 69.6281C53.6172 69.6829 54.8414 70.2393 55.735 71.18L65.335 81.975L88.265 56.175C89.1466 55.1858 90.3848 54.587 91.7077 54.5101C93.0305 54.4332 94.3297 54.8846 95.32 55.765Z" fill="white"/>
</svg>
