<svg width="22" height="22" viewBox="0 0 22 22" fill="none" xmlns="http://www.w3.org/2000/svg">
<path d="M18 4L21 1M1 21L4 18M6.5 12.5L9 10M9.5 15.5L12 13M5.3 19.3C5.52297 19.5237 5.78791 19.7013 6.07964 19.8224C6.37136 19.9435 6.68413 20.0059 7 20.0059C7.31587 20.0059 7.62864 19.9435 7.92036 19.8224C8.21209 19.7013 8.47703 19.5237 8.7 19.3L11 17L5 11L2.7 13.3C2.47626 13.523 2.29873 13.7879 2.17759 14.0796C2.05646 14.3714 1.99411 14.6841 1.99411 15C1.99411 15.3159 2.05646 15.6286 2.17759 15.9204C2.29873 16.2121 2.47626 16.477 2.7 16.7L5.3 19.3ZM11 5L17 11L19.3 8.7C19.5237 8.47703 19.7013 8.21209 19.8224 7.92036C19.9435 7.62864 20.0059 7.31587 20.0059 7C20.0059 6.68413 19.9435 6.37136 19.8224 6.07964C19.7013 5.78791 19.5237 5.52297 19.3 5.3L16.7 2.7C16.477 2.47626 16.2121 2.29873 15.9204 2.17759C15.6286 2.05646 15.3159 1.99411 15 1.99411C14.6841 1.99411 14.3714 2.05646 14.0796 2.17759C13.7879 2.29873 13.523 2.47626 13.3 2.7L11 5Z" stroke="#06545B" stroke-width="2" stroke-linecap="round" stroke-linejoin="round"/>
</svg>
