<svg width="21" height="21" viewBox="0 0 21 21" fill="none" xmlns="http://www.w3.org/2000/svg">
<path d="M18 10.5C18 14.6421 14.6421 18 10.5 18C6.35786 18 3 14.6421 3 10.5C3 6.35786 6.35786 3 10.5 3C14.6421 3 18 6.35786 18 10.5ZM5.10656 10.5C5.10656 13.4787 7.52129 15.8934 10.5 15.8934C13.4787 15.8934 15.8934 13.4787 15.8934 10.5C15.8934 7.52129 13.4787 5.10656 10.5 5.10656C7.52129 5.10656 5.10656 7.52129 5.10656 10.5Z" fill="#06545B"/>
<path d="M5.51361 16.1024C4.18118 14.9165 3.31503 13.2946 3.07064 11.5276C2.82624 9.76072 3.2196 7.96454 4.1801 6.46148C5.1406 4.95843 6.60537 3.84691 8.31149 3.32643C10.0176 2.80596 11.8534 2.9106 13.4893 3.62157L12.6497 5.55357C11.4732 5.04229 10.1531 4.96704 8.92616 5.34133C7.69925 5.71561 6.6459 6.51493 5.95518 7.59582C5.26446 8.6767 4.98158 9.96838 5.15734 11.239C5.33309 12.5097 5.95595 13.6761 6.91414 14.5289L5.51361 16.1024Z" fill="#D6FFDE"/>
</svg>
