<svg width="15" height="15" viewBox="0 0 15 15" fill="none" xmlns="http://www.w3.org/2000/svg">
<path d="M15 7.5C15 11.6421 11.6421 15 7.5 15C3.35786 15 0 11.6421 0 7.5C0 3.35786 3.35786 0 7.5 0C11.6421 0 15 3.35786 15 7.5ZM2.10656 7.5C2.10656 10.4787 4.52129 12.8934 7.5 12.8934C10.4787 12.8934 12.8934 10.4787 12.8934 7.5C12.8934 4.52129 10.4787 2.10656 7.5 2.10656C4.52129 2.10656 2.10656 4.52129 2.10656 7.5Z" fill="#06545B"/>
<path d="M11.3143 1.04234C9.95898 0.241829 8.38618 -0.111984 6.81865 0.0310137C5.25111 0.174011 3.7683 0.80657 2.58023 1.8391C1.39216 2.87162 0.559062 4.25177 0.198934 5.78406C-0.161194 7.31636 -0.0300962 8.92312 0.573658 10.3768C1.17741 11.8304 2.22322 13.0573 3.56295 13.8835C4.90268 14.7098 6.46842 15.0936 8.03841 14.9806C9.60839 14.8677 11.103 14.2636 12.3106 13.2539C13.5182 12.2443 14.3776 10.8804 14.7669 9.35524L12.7258 8.83415C12.4458 9.9309 11.8278 10.9118 10.9594 11.6378C10.091 12.3638 9.01619 12.7983 7.88718 12.8795C6.75817 12.9608 5.6322 12.6848 4.66877 12.0906C3.70534 11.4964 2.95327 10.6141 2.5191 9.56876C2.08492 8.5234 1.99065 7.36794 2.24962 6.26603C2.5086 5.16412 3.1077 4.17162 3.96207 3.4291C4.81644 2.68659 5.88277 2.2317 7.01002 2.12887C8.13727 2.02603 9.26831 2.28047 10.2429 2.85614L11.3143 1.04234Z" fill="#D6FFDE"/>
</svg>
