<svg width="39" height="36" viewBox="0 0 39 36" fill="none" xmlns="http://www.w3.org/2000/svg">
<path fill-rule="evenodd" clip-rule="evenodd" d="M18.2923 5.2281C11.3878 9.66061 8.03501 14.2352 8.03501 21.8785C8.48963 21.7364 8.88742 21.7364 9.28521 21.7364C12.8937 21.7364 16.3886 24.18 16.3886 28.5841C16.3886 33.1586 13.462 36 9.28521 36C3.88663 36 0.789551 31.6811 0.789551 23.9242C0.789551 13.1271 5.76193 5.37017 15.0532 0L18.2923 5.2281ZM38.1818 5.2281C31.2773 9.66061 27.9245 14.2352 27.9245 21.8785C28.3791 21.7364 28.7769 21.7364 29.1747 21.7364C32.7832 21.7364 36.2781 24.18 36.2781 28.5841C36.2781 33.1586 33.3515 36 29.1747 36C23.8045 36 20.7075 31.6811 20.7075 23.9242C20.7075 13.1271 25.6798 5.37017 34.9711 0L38.2102 5.2281H38.1818Z" fill="#D0E0E4"/>
</svg>
