<svg width="28" height="24" viewBox="0 0 28 24" fill="none" xmlns="http://www.w3.org/2000/svg">
<path d="M14 18.3263C14.0001 17.9616 14.0898 17.6033 14.2603 17.2874C14.4307 16.9715 14.6759 16.7091 14.9711 16.5266L25.676 9.91011C25.7745 9.84921 25.8563 9.76167 25.9132 9.65627C25.9701 9.55088 26 9.43134 26 9.30966C26 9.18798 25.9701 9.06844 25.9132 8.96304C25.8563 8.85765 25.7745 8.77011 25.676 8.70921L14.9711 2.09274C14.8727 2.03202 14.7612 2.00003 14.6476 2C14.534 1.99997 14.4224 2.03189 14.324 2.09257C14.2256 2.15324 14.1438 2.24053 14.087 2.34567C14.0301 2.45081 14.0001 2.57009 14 2.69155M14 18.3263V21.3085M14 18.3263C13.9999 17.9616 13.9102 17.6033 13.7397 17.2874C13.5693 16.9715 13.3241 16.7091 13.0289 16.5266L2.32401 9.91011C2.22549 9.84921 2.14368 9.76167 2.08681 9.65627C2.02994 9.55088 2 9.43134 2 9.30966C2 9.18798 2.02994 9.06844 2.08681 8.96304C2.14368 8.85765 2.22549 8.77011 2.32401 8.70921L13.0289 2.09274C13.1273 2.03202 13.2388 2.00003 13.3524 2C13.466 1.99997 13.5776 2.03189 13.676 2.09257C13.7744 2.15324 13.8562 2.24053 13.913 2.34567C13.9699 2.45081 13.9999 2.57009 14 2.69155M14 21.3085C14.0001 21.4299 14.0301 21.5492 14.087 21.6543C14.1438 21.7595 14.2256 21.8468 14.324 21.9074C14.4224 21.9681 14.534 22 14.6476 22C14.7612 22 14.8727 21.968 14.9711 21.9073L19.4451 19.1422C19.7404 18.9597 19.9857 18.6974 20.1563 18.3815C20.3268 18.0656 20.4167 17.7073 20.4168 17.3425V14.2939C20.4168 13.929 20.327 13.5706 20.1564 13.2546C19.9858 12.9385 19.7405 12.6761 19.4451 12.4935L14.9711 9.72849C14.6758 9.54586 14.4306 9.28336 14.2601 8.96735C14.0896 8.65133 13.9999 8.29293 14 7.92813M14 21.3085C13.9999 21.4299 13.9699 21.5492 13.913 21.6543C13.8562 21.7595 13.7744 21.8468 13.676 21.9074C13.5776 21.9681 13.466 22 13.3524 22C13.2388 22 13.1273 21.968 13.0289 21.9073L8.55494 19.1422C8.25957 18.9597 8.0143 18.6974 7.84374 18.3815C7.67318 18.0656 7.58333 17.7073 7.58322 17.3425V14.2939C7.58323 13.929 7.67302 13.5706 7.84359 13.2546C8.01415 12.9385 8.25948 12.6761 8.55494 12.4935L13.0289 9.72849C13.3242 9.54586 13.5694 9.28336 13.7399 8.96735C13.9104 8.65133 14.0001 8.29293 14 7.92813M14 7.92813V2.69155" stroke="#06545B" stroke-width="3" stroke-linecap="round" stroke-linejoin="round"/>
</svg>
