<svg width="22" height="24" viewBox="0 0 22 24" fill="none" xmlns="http://www.w3.org/2000/svg">
<path d="M15.4819 7.7034C17.2335 8.81051 19.3783 9.46188 21.6951 9.46188V6.35785C20.4019 6.11418 19.2571 5.51649 18.3963 4.68508C16.923 3.87184 15.8614 2.53028 15.5502 0.960052H12.3023V16.7107C12.2949 18.5469 10.6102 20.0336 8.53251 20.0336C7.30829 20.0336 6.22057 19.5175 5.53177 18.7178C4.30174 18.1687 3.45815 17.0414 3.45815 15.7395C3.45815 13.8982 5.1457 12.4053 7.22776 12.4053C7.62668 12.4053 8.01116 12.4602 8.37182 12.5614V9.42346C3.90057 9.50519 0.304688 12.7366 0.304688 16.7107C0.304688 18.6946 1.20012 20.4931 2.65347 21.8072C3.9646 22.5858 5.54293 23.0401 7.24117 23.0401C11.7924 23.0401 15.482 19.7766 15.482 15.7509L15.4819 7.7034Z" fill="black"/>
</svg>
