<svg width="86" height="97" viewBox="0 0 86 97" fill="none" xmlns="http://www.w3.org/2000/svg">
<path d="M24.2753 0V12.125H36.4003V12.4887C25.7739 14.0241 16.1232 19.5269 9.39 27.89C2.65678 36.2531 -0.659301 46.856 0.108938 57.5652C0.877176 68.2745 5.67273 78.2954 13.5307 85.6118C21.3887 92.9282 31.726 96.9972 42.4628 97C65.8641 97 84.9003 77.9638 84.9003 54.5625C84.9003 49.1063 83.6878 44.0137 81.8691 39.4062L70.8353 44.0138C72.1691 47.53 72.7753 50.925 72.7753 54.6838C72.7753 71.5375 59.3166 84.9963 42.4628 84.9963C25.6091 84.9963 12.1503 71.5375 12.1503 54.6838C12.1503 37.83 25.6091 24.3713 42.4628 24.3713C46.1003 24.3713 49.6166 24.9775 53.1328 26.3113L57.2553 14.9138C54.4666 13.9438 51.5566 13.4588 48.5253 12.9738V12.2463H60.6503V0.12125H24.2753V0ZM84.9003 14.065C84.9003 14.065 40.6441 48.1362 38.3403 50.44C36.0366 52.865 36.0366 56.3812 38.3403 58.8062C40.6441 61.2313 44.2816 61.2313 46.7066 58.8062C49.1316 56.3812 85.0216 14.065 85.0216 14.065H84.9003Z" fill="#06545B"/>
</svg>
