<svg width="25" height="24" viewBox="0 0 25 24" fill="none" xmlns="http://www.w3.org/2000/svg">
<path d="M0.5 21.2571V8.91428C0.5 8.48 0.6065 8.06857 0.8195 7.68C1.0325 7.29143 1.326 6.97143 1.7 6.72L10.7 0.548571C11.225 0.182857 11.825 0 12.5 0C13.175 0 13.775 0.182857 14.3 0.548571L23.3 6.72C23.675 6.97143 23.969 7.29143 24.182 7.68C24.395 8.06857 24.501 8.48 24.5 8.91428V21.2571C24.5 22.0114 24.206 22.6574 23.618 23.195C23.03 23.7326 22.324 24.0009 21.5 24H17C16.575 24 16.219 23.8683 15.932 23.605C15.645 23.3417 15.501 23.0162 15.5 22.6286V15.7714C15.5 15.3829 15.356 15.0574 15.068 14.795C14.78 14.5326 14.424 14.4009 14 14.4H11C10.575 14.4 10.219 14.5317 9.932 14.795C9.645 15.0583 9.501 15.3838 9.5 15.7714V22.6286C9.5 23.0171 9.356 23.3431 9.068 23.6064C8.78 23.8697 8.424 24.0009 8 24H3.5C2.675 24 1.969 23.7317 1.382 23.195C0.795 22.6583 0.501 22.0123 0.5 21.2571Z" fill="#06545B"/>
</svg>
