<svg width="25" height="24" viewBox="0 0 25 24" fill="none" xmlns="http://www.w3.org/2000/svg">
<path d="M9.21642 24L8.73881 20.16C8.4801 20.06 8.23652 19.94 8.00806 19.8C7.7796 19.66 7.55552 19.51 7.33582 19.35L3.78358 20.85L0.5 15.15L3.57463 12.81C3.55473 12.67 3.54478 12.5352 3.54478 12.4056V11.5956C3.54478 11.4652 3.55473 11.33 3.57463 11.19L0.5 8.85L3.78358 3.15L7.33582 4.65C7.55473 4.49 7.78358 4.34 8.02239 4.2C8.26119 4.06 8.5 3.94 8.73881 3.84L9.21642 0H15.7836L16.2612 3.84C16.5199 3.94 16.7639 4.06 16.9931 4.2C17.2224 4.34 17.4461 4.49 17.6642 4.65L21.2164 3.15L24.5 8.85L21.4254 11.19C21.4453 11.33 21.4552 11.4652 21.4552 11.5956V12.4044C21.4552 12.5348 21.4353 12.67 21.3955 12.81L24.4701 15.15L21.1866 20.85L17.6642 19.35C17.4453 19.51 17.2164 19.66 16.9776 19.8C16.7388 19.94 16.5 20.06 16.2612 20.16L15.7836 24H9.21642ZM12.5597 16.2C13.7139 16.2 14.699 15.79 15.5149 14.97C16.3308 14.15 16.7388 13.16 16.7388 12C16.7388 10.84 16.3308 9.85 15.5149 9.03C14.699 8.21 13.7139 7.8 12.5597 7.8C11.3856 7.8 10.3953 8.21 9.58896 9.03C8.78259 9.85 8.3798 10.84 8.3806 12C8.38139 13.16 8.78458 14.15 9.59015 14.97C10.3957 15.79 11.3856 16.2 12.5597 16.2Z" fill="white"/>
</svg>
