<svg width="25" height="24" viewBox="0 0 25 24" fill="none" xmlns="http://www.w3.org/2000/svg">
<path d="M24.4382 3.75826C24.2949 3.03185 24.0153 2.3696 23.6272 1.83747C23.2392 1.30533 22.7563 0.921877 22.2266 0.725281C20.2873 0 12.4824 0 12.4824 0C12.4824 0 4.67707 0.0219538 2.7378 0.747235C2.20808 0.943842 1.72516 1.32732 1.33713 1.85948C0.9491 2.39164 0.669502 3.05391 0.526178 3.78035C-0.0604065 8.50552 -0.287953 15.7056 0.542285 20.2417C0.685624 20.9681 0.965229 21.6304 1.35326 22.1625C1.74129 22.6947 2.2242 23.0781 2.75391 23.2747C4.69318 24 12.4983 24 12.4983 24C12.4983 24 20.3033 24 22.2425 23.2747C22.7722 23.0781 23.2551 22.6947 23.6432 22.1626C24.0312 21.6304 24.3109 20.9682 24.4542 20.2417C25.0729 15.5099 25.2636 8.31423 24.4382 3.75826Z" fill="#FF0000"/>
<path d="M9.99805 17.1428L16.4728 11.9999L9.99805 6.85712V17.1428Z" fill="white"/>
</svg>
